<?xml version="1.0" standalone="no"?><!DOCTYPE svg PUBLIC "-//W3C//DTD SVG 1.1//EN" "http://www.w3.org/Graphics/SVG/1.1/DTD/svg11.dtd"><svg t="1693402982134" class="icon" viewBox="0 0 1024 1024" version="1.1" xmlns="http://www.w3.org/2000/svg" p-id="2470" xmlns:xlink="http://www.w3.org/1999/xlink" width="200" height="200"><path d="M510.400572 952.050318c-239.344157 0-435.167101-198.552102-435.167101-441.22712 0-242.679112 195.823967-441.232237 435.167101-441.232237 239.33904 0 435.163007 198.553125 435.163007 441.232237C945.56358 753.497193 749.739613 952.050318 510.400572 952.050318L510.400572 952.050318zM510.400572 124.744096c-209.426777 0-380.772236 173.733856-380.772236 386.078079 0 212.340129 171.34546 386.073986 380.772236 386.073986 209.420637 0 380.76712-173.733856 380.76712-386.073986C891.167692 298.477952 719.821209 124.744096 510.400572 124.744096L510.400572 124.744096zM510.400572 124.744096" fill="#272636" p-id="2471"></path><path d="M714.381313 577.005526 464.163505 577.005526c-16.319687 0-27.197432-11.029194-27.197432-27.576055L436.966073 276.41854c0-16.546861 10.878768-27.576055 27.197432-27.576055 16.319687 0 27.197432 11.029194 27.197432 27.576055l0 245.433852 223.020376 0c16.319687 0 27.197432 11.029194 27.197432 27.577079C741.578746 563.216475 730.699977 577.005526 714.381313 577.005526L714.381313 577.005526zM714.381313 577.005526" fill="#272636" p-id="2472"></path></svg>