<?xml version="1.0" standalone="no"?><!DOCTYPE svg PUBLIC "-//W3C//DTD SVG 1.1//EN" "http://www.w3.org/Graphics/SVG/1.1/DTD/svg11.dtd"><svg t="1694000680344" class="icon" viewBox="0 0 1024 1024" version="1.1" xmlns="http://www.w3.org/2000/svg" p-id="8117" xmlns:xlink="http://www.w3.org/1999/xlink" width="200" height="200"><path d="M484.693 360.107c0 68.267-56.32 124.587-124.587 124.587h-235.52c-68.267 0-124.587-56.32-124.587-124.587v-235.52C-0.001 56.32 56.319 0 124.586 0h235.52c68.267 0 124.587 56.32 124.587 124.587v235.52zM1024 899.413C1024 967.68 967.68 1024 899.413 1024h-235.52c-68.267 0-124.587-56.32-124.587-124.587v-235.52c0-68.267 56.32-124.587 124.587-124.587h235.52c68.267 0 124.587 56.32 124.587 124.587v235.52z m-539.307 0c0 68.267-56.32 124.587-124.587 124.587h-235.52C56.319 1024-0.001 967.68-0.001 899.413v-235.52c0-68.267 56.32-124.587 124.587-124.587h235.52c68.267 0 124.587 56.32 124.587 124.587v235.52zM887.467 107.52c15.36 0 29.013 13.653 29.013 29.013V348.16c0 15.36-13.653 29.013-29.013 29.013H675.84c-15.36 0-29.013-13.653-29.013-29.013V136.533c0-15.36 13.653-29.013 29.013-29.013h211.627zM899.413 0h-235.52c-68.267 0-124.587 56.32-124.587 124.587v235.52c0 68.267 56.32 124.587 124.587 124.587h235.52c68.267 0 124.587-56.32 124.587-124.587v-235.52C1024 56.32 967.68 0 899.413 0z" fill="#e6e6e6" p-id="8118"></path></svg>