<?xml version="1.0" standalone="no"?><!DOCTYPE svg PUBLIC "-//W3C//DTD SVG 1.1//EN" "http://www.w3.org/Graphics/SVG/1.1/DTD/svg11.dtd"><svg t="1693398155821" class="icon" viewBox="0 0 1024 1024" version="1.1" xmlns="http://www.w3.org/2000/svg" p-id="10280" xmlns:xlink="http://www.w3.org/1999/xlink" width="200" height="200"><path d="M487.888213 183.022933c-18.507093-11.20256-79.018667-42.840747-115.008853-62.890666-31.44704-17.483093-40.987307 20.053333-43.984213 45.765973-2.993493 25.78432-2.993493 59.132587 29.97248 59.132587h121.029973c32.96256 0 32.96256-26.692267 7.990613-42.007894zM701.085013 165.348693c-2.993493-25.71264-12.53376-63.249067-44.004693-45.765973-36.037973 20.053333-96.505173 51.688107-115.008853 62.962347-25.023147 15.24736-25.023147 41.9328 8.01792 41.9328h121.002666c32.989867 0.003413 32.989867-33.368747 29.99296-59.129174zM866.304 258.48832h-323.795627v170.666667H866.304c19.114667 0 34.607787-15.755947 34.607787-35.188054V293.679787c-0.003413-19.43552-15.496533-35.191467-34.607787-35.191467zM487.89504 463.21664H238.629547c-37.65248 0-68.17792 31.03744-68.17792 69.328213v305.076907c0 38.290773 30.522027 69.331627 68.17792 69.331627h249.265493V463.21664zM791.773867 463.21664h-249.265494v443.733333h249.265494c37.65248 0 68.17792-31.040853 68.17792-69.331626V532.548267c-0.003413-38.290773-30.52544-69.331627-68.17792-69.331627zM487.89504 258.48832H164.099413c-19.111253 0-34.604373 15.755947-34.604373 35.188053v100.29056c0 19.432107 15.49312 35.188053 34.604373 35.188054h323.795627v-170.666667z" fill="#cdcdcd" p-id="10281"></path></svg>