<?xml version="1.0" standalone="no"?><!DOCTYPE svg PUBLIC "-//W3C//DTD SVG 1.1//EN" "http://www.w3.org/Graphics/SVG/1.1/DTD/svg11.dtd"><svg t="1693397623125" class="icon" viewBox="0 0 1024 1024" version="1.1" xmlns="http://www.w3.org/2000/svg" p-id="2601" xmlns:xlink="http://www.w3.org/1999/xlink" width="200" height="200"><path d="M261.888 924.722H142.025c-24.262 0-44-19.738-44-44V140.325c0-24.262 19.738-44 44-44h119.863c24.262 0 44 19.738 44 44v740.397c0 24.261-19.739 44-44 44z m-99.863-64h79.863V160.325h-79.863v700.397zM511.888 928.722H392.025c-24.262 0-44-19.738-44-44V144.325c0-24.262 19.738-44 44-44h119.863c24.262 0 44 19.738 44 44v740.397c0 24.261-19.739 44-44 44z m-99.863-64h79.863V164.325h-79.863v700.397zM763.357 931.53c-21.028 0-39.678-15.164-43.346-36.576l-124.99-729.77c-4.096-23.913 12.026-46.7 35.94-50.796l118.143-20.235c11.574-1.982 23.231 0.668 32.834 7.462 9.602 6.794 15.98 16.908 17.963 28.479l124.991 729.771c1.981 11.57-0.668 23.23-7.461 32.832-6.794 9.603-16.908 15.982-28.479 17.965l-5.402-31.541 5.402 31.541-118.143 20.234a44.295 44.295 0 0 1-7.452 0.634zM661.479 174.092l118.238 690.344 78.717-13.481L740.195 160.61l-78.716 13.482z" fill="" p-id="2602"></path><path d="M143.063 241.042H249v64H143.063zM400.999 239.802H503v64H400.999zM739.41 742.534l108.002-19.196 11.2 63.015-108.001 19.196z" fill="" p-id="2603"></path></svg>