<?xml version="1.0" standalone="no"?><!DOCTYPE svg PUBLIC "-//W3C//DTD SVG 1.1//EN" "http://www.w3.org/Graphics/SVG/1.1/DTD/svg11.dtd"><svg t="1694000627725" class="icon" viewBox="0 0 1024 1024" version="1.1" xmlns="http://www.w3.org/2000/svg" p-id="6795" xmlns:xlink="http://www.w3.org/1999/xlink" width="200" height="200"><path d="M664.01 439.57c16.57 0 30-13.43 30-30s-13.43-30-30-30h-81.35l46.32-46.32c11.72-11.72 11.72-30.71 0-42.43-11.72-11.72-30.71-11.72-42.43 0l-74.25 74.25-74.86-74.86c-11.72-11.72-30.71-11.72-42.43 0-11.72 11.72-11.72 30.71 0 42.43l46.93 46.93h-81.96c-16.57 0-30 13.43-30 30s13.43 30 30 30H482v73.27H359.99c-16.57 0-30 13.43-30 30s13.43 30 30 30H482v139.73c0 16.57 13.43 30 30 30s30-13.43 30-30V572.84h122.01c16.57 0 30-13.43 30-30s-13.43-30-30-30H542v-73.27h122.01z" fill="#e6e6e6" p-id="6796"></path><path d="M533.05 64.51C264.62 52.1 52.09 264.63 64.5 533.06c10.76 232.7 199.05 419.03 432.54 426.7 1.25 0.16 2.52 0.25 3.81 0.25h354.58c0.49 0 0.99-0.01 1.48-0.04 0.23-0.01 0.46-0.03 0.69-0.05 0.26-0.02 0.51-0.03 0.77-0.06 0.29-0.03 0.59-0.07 0.88-0.11 0.19-0.02 0.38-0.04 0.57-0.07 0.32-0.05 0.63-0.1 0.95-0.16l0.49-0.09c0.32-0.06 0.64-0.14 0.95-0.21 0.16-0.04 0.32-0.07 0.48-0.11 0.31-0.08 0.61-0.16 0.92-0.25 0.17-0.05 0.34-0.09 0.51-0.14l0.84-0.27c0.19-0.06 0.38-0.13 0.57-0.19 0.25-0.09 0.5-0.19 0.75-0.28 0.22-0.08 0.43-0.17 0.65-0.25 0.22-0.09 0.43-0.18 0.64-0.28 0.24-0.11 0.48-0.21 0.72-0.33 0.18-0.09 0.36-0.18 0.55-0.27 0.26-0.13 0.52-0.26 0.78-0.4 0.16-0.08 0.31-0.17 0.46-0.26 0.27-0.15 0.55-0.31 0.82-0.47 0.14-0.08 0.28-0.17 0.42-0.26 0.27-0.17 0.55-0.34 0.82-0.53 0.14-0.09 0.27-0.19 0.41-0.28 0.26-0.18 0.52-0.36 0.78-0.56 0.15-0.11 0.3-0.23 0.45-0.35 0.23-0.18 0.47-0.36 0.69-0.55 0.2-0.16 0.39-0.34 0.59-0.5 0.17-0.15 0.35-0.3 0.52-0.45a32 32 0 0 0 2.1-2.1c0.16-0.17 0.3-0.35 0.45-0.52 0.17-0.2 0.34-0.39 0.5-0.59 0.19-0.23 0.37-0.46 0.55-0.69 0.12-0.15 0.24-0.3 0.35-0.45 0.19-0.26 0.37-0.52 0.56-0.78 0.09-0.14 0.19-0.27 0.28-0.41 0.18-0.27 0.35-0.54 0.53-0.82 0.09-0.14 0.18-0.28 0.26-0.42 0.16-0.27 0.32-0.54 0.47-0.82 0.09-0.15 0.17-0.31 0.26-0.46 0.14-0.26 0.27-0.52 0.4-0.78 0.09-0.18 0.18-0.36 0.27-0.55l0.33-0.72c0.09-0.21 0.19-0.43 0.28-0.64 0.09-0.21 0.17-0.43 0.25-0.65 0.1-0.25 0.19-0.5 0.28-0.75 0.07-0.19 0.13-0.38 0.19-0.57 0.09-0.28 0.19-0.56 0.27-0.84 0.05-0.17 0.1-0.34 0.14-0.51 0.09-0.3 0.17-0.61 0.25-0.92 0.04-0.16 0.07-0.32 0.11-0.48 0.07-0.32 0.15-0.63 0.21-0.95l0.09-0.49c0.06-0.31 0.11-0.63 0.16-0.94 0.03-0.19 0.05-0.38 0.07-0.57 0.04-0.29 0.08-0.58 0.11-0.88 0.03-0.26 0.04-0.51 0.06-0.77 0.02-0.23 0.04-0.46 0.05-0.69 0.02-0.49 0.04-0.99 0.04-1.48s-0.01-0.99-0.04-1.48c-0.01-0.23-0.03-0.46-0.05-0.69-0.02-0.26-0.03-0.52-0.06-0.77-0.03-0.29-0.07-0.58-0.1-0.88-0.02-0.19-0.04-0.38-0.07-0.57-0.05-0.32-0.1-0.63-0.16-0.94l-0.09-0.49c-0.06-0.32-0.14-0.63-0.21-0.95-0.04-0.16-0.07-0.32-0.11-0.48-0.08-0.31-0.16-0.61-0.25-0.91-0.05-0.17-0.09-0.34-0.14-0.51-0.08-0.28-0.18-0.56-0.27-0.84-0.06-0.19-0.13-0.38-0.19-0.57-0.09-0.25-0.18-0.5-0.28-0.74-0.08-0.22-0.17-0.43-0.26-0.65-0.09-0.22-0.18-0.43-0.28-0.64-0.11-0.24-0.21-0.48-0.33-0.72l-0.27-0.54c-0.13-0.26-0.26-0.53-0.4-0.79-0.08-0.16-0.17-0.31-0.26-0.46-0.15-0.27-0.31-0.55-0.47-0.82-0.08-0.14-0.17-0.28-0.26-0.42-0.17-0.27-0.34-0.55-0.53-0.82-0.09-0.14-0.19-0.27-0.28-0.41-0.18-0.26-0.36-0.52-0.56-0.78-0.11-0.15-0.23-0.3-0.35-0.45-0.18-0.23-0.36-0.47-0.55-0.7-0.16-0.2-0.33-0.39-0.5-0.58-0.15-0.18-0.3-0.36-0.46-0.53-0.33-0.37-0.67-0.73-1.02-1.08L735.23 767.38c-11.72-11.72-30.71-11.72-42.43 0-11.72 11.72-11.72 30.71 0 42.43l90.21 90.21H510.15c-51.75-0.24-101.92-10.48-149.15-30.45-46.2-19.54-87.7-47.52-123.35-83.18-35.65-35.65-63.64-77.15-83.18-123.35-20.22-47.8-30.47-98.6-30.47-151.01s10.25-103.21 30.47-151.01c19.54-46.2 47.52-87.7 83.18-123.35 35.65-35.65 77.15-63.64 123.35-83.18 47.8-20.22 98.6-30.47 151.01-30.47s103.21 10.25 151.01 30.47c46.2 19.54 87.7 47.52 123.35 83.18 35.65 35.65 63.64 77.15 83.18 123.35 20.22 47.8 30.47 98.6 30.47 151.01 0 27.55-2.84 54.66-8.46 81.13-3.98 18.7 10.24 36.31 29.36 36.31 14.18 0 26.36-9.95 29.3-23.82 6.42-30.2 9.8-61.52 9.8-93.62 0-240.38-189.31-436.54-426.97-447.52z" fill="#e6e6e6" p-id="6797"></path></svg>