<?xml version="1.0" standalone="no"?><!DOCTYPE svg PUBLIC "-//W3C//DTD SVG 1.1//EN" "http://www.w3.org/Graphics/SVG/1.1/DTD/svg11.dtd"><svg t="1694050319754" class="icon" viewBox="0 0 1024 1024" version="1.1" xmlns="http://www.w3.org/2000/svg" p-id="4147" xmlns:xlink="http://www.w3.org/1999/xlink" width="200" height="200"><path d="M757.248 66.56H123.904C70.144 66.56 26.112 111.104 26.112 164.864v694.784c0 53.76 44.032 97.792 97.792 97.792h382.464c16.896 0 30.72-13.824 30.72-30.72s-13.824-30.72-30.72-30.72H123.904c-19.968 0-36.352-16.384-36.352-36.352V164.352c0-19.968 16.384-36.352 36.352-36.352H757.76c19.968 0 36.352 16.384 36.352 36.352v181.248c0 16.896 13.824 30.72 30.72 30.72s30.72-13.824 30.72-30.72V164.864c0-53.76-44.032-98.304-98.304-98.304z" fill="#e6e6e6" p-id="4148"></path><path d="M645.632 329.216H199.68c-16.896 0-30.72-13.824-30.72-30.72s13.824-30.72 30.72-30.72h445.952c16.896 0 30.72 13.824 30.72 30.72s-13.824 30.72-30.72 30.72zM382.976 488.96H199.68c-16.896 0-30.72-13.824-30.72-30.72s13.824-30.72 30.72-30.72h183.296c16.896 0 30.72 13.824 30.72 30.72s-13.824 30.72-30.72 30.72zM952.32 954.368l-129.536-129.536c-11.776-11.776-11.776-31.744 0-43.52s31.744-11.776 43.52 0l129.536 129.536c11.776 11.776 11.776 31.744 0 43.52s-31.232 11.776-43.52 0zM296.448 655.36H199.68c-16.896 0-30.72-13.824-30.72-30.72s13.824-30.72 30.72-30.72h96.768c16.896 0 30.72 13.824 30.72 30.72s-13.824 30.72-30.72 30.72z" fill="#e6e6e6" p-id="4149"></path><path d="M690.176 464.896c101.888 0 184.32 82.432 184.32 184.32s-82.432 184.32-184.32 184.32-184.32-82.432-184.32-184.32 82.944-184.32 184.32-184.32m0-61.44c-135.68 0-245.76 110.08-245.76 245.76s110.08 245.76 245.76 245.76 245.76-110.08 245.76-245.76-110.08-245.76-245.76-245.76z" fill="#e6e6e6" p-id="4150"></path></svg>