<?xml version="1.0" standalone="no"?><!DOCTYPE svg PUBLIC "-//W3C//DTD SVG 1.1//EN" "http://www.w3.org/Graphics/SVG/1.1/DTD/svg11.dtd"><svg t="1694050442074" class="icon" viewBox="0 0 1024 1024" version="1.1" xmlns="http://www.w3.org/2000/svg" p-id="6284" xmlns:xlink="http://www.w3.org/1999/xlink" width="200" height="200"><path d="M852.928 107.2c25.344 27.712 38.656 61.696 39.808 101.952v665.856c1.728 24.512-5.824 46.528-22.72 66.048-16.896 19.52-37.312 23.488-61.248 11.84-15.744-10.496-29.056-25.664-39.808-45.504-10.816-19.84-25.216-30.656-43.328-32.384h-11.392c-23.36 5.248-40.256 19.072-50.752 41.536-10.496 22.464-27.136 36.288-49.856 41.536H602.24c-23.36-5.824-40.128-20.416-50.304-43.776-10.24-23.36-27.008-36.48-50.304-39.36h-5.248c-23.36 5.248-40.256 19.072-50.752 41.536-10.496 22.464-27.136 36.288-49.856 41.536h-11.392c-23.36-5.824-40.256-20.416-50.752-43.776-10.496-23.36-27.136-36.48-49.856-39.36h-6.144c-23.36 3.52-40.96 17.344-52.928 41.536-11.968 24.192-29.632 38.08-52.928 41.536-19.84-1.152-35.008-10.816-45.504-28.864-10.496-18.112-15.744-36.16-15.744-54.272V209.152c1.152-40.256 14.464-74.24 39.808-101.952s56.704-42.112 94.08-43.328h514.496c37.312 1.216 68.672 15.616 94.016 43.328zM769.344 378.88c-3.52-8.192-10.816-12.544-21.888-13.12a40.0832 40.0832 0 0 0-26.24 0c-8.768 2.944-14.848 8.448-18.368 16.64l-11.392 28.032c-12.224-42.56-35.584-77.312-70.016-104.128-34.432-26.816-74.368-40.512-119.872-41.152-57.728 1.152-106.304 19.84-145.664 56-39.36 36.16-59.648 82.816-60.8 140.032 1.152 57.152 20.544 104.576 58.176 142.208s85.312 57.344 143.04 59.072c19.264 0 38.336-2.752 57.344-8.32 18.944-5.568 36.864-14.144 53.824-25.792 8.768-5.248 14.272-11.84 16.64-19.712 2.304-7.872 0.576-16.192-5.248-24.96-2.944-5.824-8.896-9.792-17.92-11.84-9.024-2.048-17.92-1.856-26.688 0.448-11.072 8.768-22.464 14.72-34.112 17.92-11.648 3.2-24.512 4.8-38.528 4.8-37.312-1.152-68.864-14.464-94.528-39.808s-38.784-56.704-39.36-94.08c0.576-37.312 13.696-68.8 39.36-94.528 25.664-25.664 57.152-39.104 94.528-40.256 34.432 1.152 63.872 12.224 88.384 33.28s39.68 47.232 45.504 78.72l-38.528-11.392c-9.344-2.304-18.368-1.344-27.136 3.072s-14.592 10.944-17.472 19.712c-2.944 8.768-2.176 16.64 2.176 23.616s10.944 12.224 19.712 15.744l112 44.608H697.6c5.248-0.576 10.496-3.072 15.744-7.424s9.344-9.472 12.224-15.296l44.608-105.856c3.008-9.28 2.688-18.048-0.832-26.24z" p-id="6285" fill="#dbdbdb"></path></svg>